<svg xmlns="http://www.w3.org/2000/svg" width="120" height="120" viewBox="0 0 120 120" fill="none">
  <defs>
    <linearGradient id="cakeCream" x1="0%" y1="0%" x2="0%" y2="100%">
      <stop offset="0%" stop-color="#ffffff"/>
      <stop offset="100%" stop-color="#fff3d1"/>
    </linearGradient>
    <linearGradient id="strawberryDrip" x1="0%" y1="0%" x2="100%" y2="100%">
      <stop offset="0%" stop-color="#ff5252"/>
      <stop offset="100%" stop-color="#d50000"/>
    </linearGradient>
    <filter id="cakeDropShadow" x="-20%" y="-20%" width="140%" height="140%">
      <feDropShadow dx="0" dy="8" stdDeviation="8" flood-color="#000000" flood-opacity="0.3"/>
    </filter>
  </defs>

  <g filter="url(#cakeDropShadow)">
    <!-- Base Plate -->
    <ellipse cx="60" cy="98" rx="48" ry="12" fill="#e0e0e0"/>
    <ellipse cx="60" cy="96" rx="46" ry="10" fill="#ffffff"/>

    <!-- Cake Base Tier -->
    <rect x="22" y="60" width="76" height="34" rx="8" fill="url(#cakeCream)"/>
    <path d="M22 60 Q35 72 48 60 Q60 72 72 60 Q85 72 98 60 L98 68 Q85 80 72 68 Q60 80 48 68 Q35 80 22 68 Z" fill="url(#strawberryDrip)"/>

    <!-- Cake Top Tier -->
    <rect x="32" y="38" width="56" height="24" rx="6" fill="url(#cakeCream)"/>
    <path d="M32 38 Q46 48 60 38 Q74 48 88 38 L88 44 Q74 54 60 44 Q46 54 32 44 Z" fill="url(#strawberryDrip)"/>

    <!-- Strawberries on top -->
    <circle cx="42" cy="34" r="5" fill="#d50000"/>
    <circle cx="78" cy="34" r="5" fill="#d50000"/>

    <!-- Birthday Candle -->
    <rect x="57" y="16" width="6" height="22" rx="2" fill="#ab47bc"/>
    <rect x="58.5" y="16" width="3" height="22" fill="#e1bee7"/>

    <!-- Candle Flame & Glow -->
    <circle cx="60" cy="10" r="8" fill="#ff9800" opacity="0.35"/>
    <path d="M60 4 Q65 10 60 15 Q55 10 60 4 Z" fill="#ffeb3b"/>
    <circle cx="60" cy="11" r="2" fill="#ffffff"/>
  </g>
</svg>